{"title":"Paranormal Activity 3 2011 TS XviD - MiSTERE","uid":6766330,"size":1665196731,"categoryP":"video","categoryS":"movies","magnet":"?xt=urn:btih:b8cb186b7d29842a8f25de671613c5692a34d146&amp;dn=Paranormal+Activity+3+2011+TS+XviD+-+MiSTERE&amp;tr=udp%3A%2F%2Ftracker.openbittorrent.com%3A80&amp;tr=udp%3A%2F%2Fopen.demonii.com%3A1337&amp;tr=udp%3A%2F%2Ftracker.coppersurfer.tk%3A6969&amp;tr=udp%3A%2F%2Fexodus.desync.com%3A6969","seeders":0,"leechers":1,"uploader":"SAFCukO09","files":4,"time":1319398578,"description":"Paranormal Activity 3 2011 TS XviD - MiSTERE\n &lt;a href=&quot;\nhttp://www.imdb.com/title/tt1778304/&quot; rel=&quot;nofollow&quot; target=&quot;_NEW&quot;&gt;\nhttp://www.imdb.com/title/tt1778304/&lt;/a&gt;\n\nVideo\nID : 0\nFormat : MPEG-4 Visual\nFormat profile : Advanced Simple@L5\nFormat settings, BVOP : 2\nFormat settings, QPel : No\nFormat settings, GMC : No warppoints\nFormat settings, Matrix : Default (H.263)\nMuxing mode : Packed bitstream\nCodec ID : XVID\nCodec ID/Hint : XviD\nDuration : 1h 18mn\nBit rate : 2 645 Kbps\nWidth : 720 pixels\nHeight : 384 pixels\nDisplay aspect ratio : 1.875\nFrame rate : 25.000 fps\nColor space : YUV\nChroma subsampling : 4:2:0\nBit depth : 8 bits\nScan type : Progressive\nCompression mode : Lossy\nBits/(Pixel*Frame) : 0.383\nStream size : 1.45 GiB (95%)\nWriting library : XviD 64\n\nAudio\nID : 1\nFormat : MPEG Audio\nFormat version : Version 1\nFormat profile : Layer 3\nMode : Joint stereo\nMode extension : MS Stereo\nCodec ID : 55\nCodec ID/Hint : MP3\nDuration : 1h 18mn\nBit rate mode : Constant\nBit rate : 128 Kbps\nChannel(s) : 2 channels\nSampling rate : 44.1 KHz\nCompression mode : Lossy\nStream size : 71.9 MiB (5%)\nAlignment : Split accross interleaves\nInterleave, duration : 40 ms (1.00 video frame)\n\n\nThanks to RELiZLABS for the source files\nCropped resized sharpened and tweaked RGB\nOverall not a bad video, nothing missing and\nif it werent for the slight hotspots and flicker\nfrom time to time it would be very nice.","torrent":{"xt":"urn:btih:b8cb186b7d29842a8f25de671613c5692a34d146","amp;dn":"Paranormal+Activity+3+2011+TS+XviD+-+MiSTERE","amp;tr":["udp%3A%2F%2Ftracker.openbittorrent.com%3A80","udp%3A%2F%2Fopen.demonii.com%3A1337","udp%3A%2F%2Ftracker.coppersurfer.tk%3A6969","udp%3A%2F%2Fexodus.desync.com%3A6969"],"infoHash":"b8cb186b7d29842a8f25de671613c5692a34d146","infoHashBuffer":{"type":"Buffer","data":[184,203,24,107,125,41,132,42,143,37,222,103,22,19,197,105,42,52,209,70]},"announce":[],"urlList":[]}}